<svg width="39" height="36" viewBox="0 0 39 36" fill="none" xmlns="http://www.w3.org/2000/svg">
<path d="M38.0018 30.4234V18.7421C38.0018 17.2628 37.4064 15.8466 36.342 14.8092L22.8295 1.63951C20.7007 -0.435174 17.3001 -0.435174 15.1713 1.63951L1.65877 14.8092C0.594366 15.8466 -0.000976562 17.2628 -0.000976562 18.7421V30.4234C-0.000976562 33.4543 2.45256 35.9168 5.49242 35.9168H32.5174C35.5482 35.9168 38.0018 33.4633 38.0018 30.4234Z" fill="#6A06FA"/>
<path fillRule="evenodd" clipRule="evenodd" d="M7.76578 22.9363V19.5176H5.30322V28.7454H7.74774V25.2996C7.76578 24.5419 8.28896 24.1811 8.76704 24.1811C9.25414 24.1811 9.62397 24.4066 9.65103 25.1463V28.7544H12.0685V25.1373C12.0685 22.9453 10.8237 22.0884 9.50671 22.0884C8.73096 22.0884 8.22582 22.3409 7.76578 22.9363ZM20.5293 22.2416H18.2472L18.1119 22.9362C17.7691 22.404 17.1287 22.0883 16.1996 22.0883C14.3053 22.0883 13.0334 23.5676 13.0334 25.498C13.0334 27.4013 14.1068 28.7633 16.0192 28.8806C16.7498 28.9167 17.6158 28.6912 18.175 28.0597L18.2833 28.7633H20.5293V22.2416ZM16.7678 26.9232C16.0372 26.9232 15.4599 26.409 15.4599 25.498C15.4599 24.5869 16.0462 24.0637 16.7678 24.0547C17.6248 24.0547 18.1119 24.623 18.1119 25.498C18.1119 26.2647 17.5887 26.9232 16.7678 26.9232ZM24.3897 22.792C24.7505 22.359 25.3639 22.0884 26.2028 22.0884C28.106 22.0884 29.3689 23.5046 29.3689 25.4981C29.3689 27.5547 28.2955 28.7634 26.3832 28.8807C25.6525 28.9168 24.7866 28.6913 24.2273 28.0599L24.1191 28.7634H21.9542V19.5176H24.3806V22.792H24.3897ZM24.3355 25.5702C24.3355 26.2558 24.8226 26.9323 25.6435 26.9323C26.3741 26.9323 26.9514 26.4181 26.9514 25.5071C26.9514 24.596 26.3741 24.0638 25.6435 24.0638C24.7866 24.0638 24.3355 24.7764 24.3355 25.5702ZM32.8969 22.3411V28.7636H30.4524V22.3411H32.8969Z" fill="white"/>
<path d="M31.7147 7.39471C32.721 7.39471 33.5368 6.57892 33.5368 5.5726C33.5368 4.56627 32.721 3.75049 31.7147 3.75049C30.7084 3.75049 29.8926 4.56627 29.8926 5.5726C29.8926 6.57892 30.7084 7.39471 31.7147 7.39471Z" fill="#FF5958"/>
</svg>